<svg width="48" height="48" viewBox="0 0 48 48" xmlns="http://www.w3.org/2000/svg">
  <path d="M38.7 25.5c-.1-3.5 1.5-6.1 4.8-8-1.8-2.6-4.5-4-8-4.2-3.3-.2-6.5 2-7.7 2-1.2 0-3.2-1.9-5.3-1.9-4.1 0-8.4 3.2-8.4 9.2 0 3.6 1.4 7.4 3.1 9.8 1.5 2.1 3.1 4.5 5.4 4.4 2.2-.1 3.1-1.4 5.8-1.4 2.7 0 3.5 1.4 5.8 1.4 2.3 0 3.7-2.1 5.1-4.2 1.6-2.4 2.3-4.7 2.3-4.8-.1-.1-4.5-1.7-4.6-6.6zm-6.5-12.5c1.3-1.6 2.2-3.8 2-6-.2-.1-2.1.1-4.1 1.4-1.1.7-2.2 1.9-2.9 3.2-.6 1.2-1.1 2.6-1 4.1.1.1 2.1-.1 4-1.4z" fill="#000"/>
</svg>