<svg width="48" height="48" viewBox="0 0 48 48" xmlns="http://www.w3.org/2000/svg">
  <path fill="#4285F4" d="M24 9.5c3.9 0 7.1 1.3 9.5 3.5l7-7C35.5 2.5 30.1 0 24 0 14.6 0 6.8 5.8 3.3 14.2l8.2 6.4C13.4 14.1 18.2 9.5 24 9.5z"/>
  <path fill="#34A853" d="M46.1 24.5c0-1.6-.1-3.1-.4-4.5H24v9h12.7c-.6 3.1-2.4 5.7-5 7.4l8.2 6.4C43.4 38.5 46.1 32 46.1 24.5z"/>
  <path fill="#FBBC05" d="M12.5 28.6c-1.1-3.1-1.1-6.5 0-9.6L4.3 12.6C1.5 17.5 0 22.6 0 24s1.5 6.5 4.3 11.4l8.2-6.4z"/>
  <path fill="#EA4335" d="M24 48c6.1 0 11.3-2 15.1-5.4l-8.2-6.4c-2.3 1.5-5.2 2.4-8.4 2.4-5.8 0-10.7-3.9-12.5-9.1l-8.2 6.4C6.8 42.2 14.6 48 24 48z"/>
</svg>